<svg width="64" height="64" viewBox="0 0 64 64" fill="none" xmlns="http://www.w3.org/2000/svg">
  <defs>
    <linearGradient id="fg" x1="10" y1="10" x2="54" y2="54" gradientUnits="userSpaceOnUse">
      <stop stop-color="#60A5FA"/>
      <stop offset="0.5" stop-color="#22D3EE"/>
      <stop offset="1" stop-color="#A78BFA"/>
    </linearGradient>
  </defs>

  <rect x="2" y="2" width="60" height="60" rx="16" fill="#0F172A"/>

  <path d="M18 22C18 18.7 20.7 16 24 16H27" stroke="url(#fg)" stroke-width="6" stroke-linecap="round"/>
  <path d="M27 48H24C20.7 48 18 45.3 18 42" stroke="url(#fg)" stroke-width="6" stroke-linecap="round"/>

  <path d="M30 22C30 18.7 32.7 16 36 16H38" stroke="url(#fg)" stroke-width="5.6" stroke-linecap="round"/>
  <path d="M38 16C41.3 16 44 18.7 44 22C44 24.2 42.8 26 40.8 27.2L32.8 32" stroke="url(#fg)" stroke-width="5.6" stroke-linecap="round" stroke-linejoin="round"/>
  <path d="M32 48H44" stroke="url(#fg)" stroke-width="5.6" stroke-linecap="round"/>

  <path d="M46 16V48" stroke="url(#fg)" stroke-width="6" stroke-linecap="round"/>
  <path d="M46 16H50C52.2 16 54 17.8 54 20V24C54 26.2 52.2 28 50 28H46" stroke="url(#fg)" stroke-width="5.6" stroke-linecap="round" stroke-linejoin="round"/>
</svg>
